<svg aria-hidden="true" style="position: absolute; width: 0; height: 0; overflow: hidden;" version="1.1" xmlns="http://www.w3.org/2000/svg" xmlns:xlink="http://www.w3.org/1999/xlink">
<defs>
<symbol id="icon-new-message" viewBox="0 0 20 20">
<path d="M18.174 1.826c-1.102-1.102-2.082-0.777-2.082-0.777l-8.639 8.632-1.453 4.319 4.317-1.454 8.634-8.638c0 0 0.324-0.98-0.777-2.082zM10.605 11.605l-0.471 0.47-1.473 0.5c-0.104-0.24-0.234-0.477-0.498-0.74s-0.5-0.394-0.74-0.498l0.5-1.473 0.471-0.47c0 0 0.776-0.089 1.537 0.673 0.762 0.761 0.674 1.538 0.674 1.538zM16 17h-13v-13h5l2-2h-7c-1.1 0-2 0.9-2 2v13c0 1.1 0.9 2 2 2h13c1.1 0 2-0.9 2-2v-7l-2 2v5z"></path>
</symbol>
<symbol id="icon-dots-three-horizontal" viewBox="0 0 20 20">
<path d="M10.001 7.8c-1.215 0-2.201 0.985-2.201 2.2s0.986 2.2 2.201 2.2c1.215 0 2.199-0.985 2.199-2.2s-0.984-2.2-2.199-2.2zM3.001 7.8c-1.215 0-2.201 0.985-2.201 2.2s0.986 2.2 2.201 2.2c1.215 0 2.199-0.986 2.199-2.2s-0.984-2.2-2.199-2.2zM17.001 7.8c-1.215 0-2.201 0.985-2.201 2.2s0.986 2.2 2.201 2.2c1.215 0 2.199-0.985 2.199-2.2s-0.984-2.2-2.199-2.2z"></path>
</symbol>
<symbol id="icon-trash" viewBox="0 0 20 20">
<path d="M3.389 7.113l1.101 10.908c0.061 0.461 2.287 1.977 5.51 1.979 3.225-0.002 5.451-1.518 5.511-1.979l1.102-10.908c-1.684 0.942-4.201 1.387-6.613 1.387-2.41 0-4.928-0.445-6.611-1.387zM13.168 1.51l-0.859-0.951c-0.332-0.473-0.692-0.559-1.393-0.559h-1.831c-0.7 0-1.061 0.086-1.392 0.559l-0.859 0.951c-2.57 0.449-4.434 1.64-4.434 2.519v0.17c0 1.547 3.403 2.801 7.6 2.801 4.198 0 7.601-1.254 7.601-2.801v-0.17c0-0.879-1.863-2.070-4.433-2.519zM12.070 4.34l-1.070-1.34h-2l-1.068 1.34h-1.7c0 0 1.862-2.221 2.111-2.522 0.19-0.23 0.384-0.318 0.636-0.318h2.043c0.253 0 0.447 0.088 0.637 0.318 0.248 0.301 2.111 2.522 2.111 2.522h-1.7z"></path>
</symbol>
<symbol id="icon-clock" viewBox="0 0 20 20">
<path d="M11 1.799c-4.445 0-8.061 3.562-8.169 7.996v0.205h-2.372l3.594 3.894 3.494-3.894h-2.672v-0.205c0.107-3.303 2.808-5.945 6.125-5.945 3.386 0 6.131 2.754 6.131 6.15s-2.745 6.15-6.131 6.15c-1.357 0-2.611-0.445-3.627-1.193l-1.406 1.504c1.388 1.088 3.135 1.738 5.033 1.738 4.515 0 8.174-3.67 8.174-8.199s-3.659-8.201-8.174-8.201zM10 5v5c0 0.13 0.027 0.26 0.077 0.382s0.124 0.233 0.216 0.325l3.2 3.2c0.283-0.183 0.55-0.389 0.787-0.628l-2.28-2.279v-6h-2z"></path>
</symbol>
</defs>
</svg>